<svg width="1024" height="1024" viewBox="0 0 1024 1024" fill="none" xmlns="http://www.w3.org/2000/svg">
<rect width="1024" height="1024" fill="url(#paint0_linear_269_30)"/>
<path d="M523.208 153.772C619.843 153.772 700.326 189.738 764.658 261.671C826.547 330.889 857.492 414.358 857.492 512.078C857.492 609.527 826.412 692.996 764.251 762.485C699.919 834.418 619.571 870.384 523.208 870.384C427.389 870.384 347.041 834.282 282.166 762.078C219.463 692.317 188.111 608.984 188.111 512.078C188.111 414.63 219.327 331.161 281.759 261.671C346.363 189.738 426.846 153.772 523.208 153.772ZM298.046 247.013C297.231 246.199 296.01 245.249 294.381 244.163C291.667 242.263 292.888 241.313 298.046 241.313C298.046 242.67 297.096 247.149 295.195 254.749C296.281 254.206 297.231 253.392 298.046 252.306L292.752 257.599C290.581 257.599 287.731 258.549 284.202 260.45C280.945 262.35 278.637 263.3 277.28 263.3C277.28 266.828 276.466 268.593 274.837 268.593C273.208 268.321 272.394 270.086 272.394 273.886C261.536 273.886 256.107 281.215 256.107 295.873L251.221 301.573H245.928L240.635 307.274C240.635 308.359 240.907 308.902 241.45 308.902C241.992 308.902 242.942 308.359 244.3 307.274C245.928 306.188 247.014 305.645 247.557 305.645C248.1 305.916 248.371 306.459 248.371 307.274C245.928 307.274 242.4 306.324 237.785 304.423C233.442 302.523 229.913 301.573 227.199 301.573H211.726L188.111 315.01L182.818 342.697C182.003 342.969 181.596 343.511 181.596 344.326C181.596 346.769 184.311 353.012 189.739 363.055C194.083 370.927 196.254 376.628 196.254 380.156C196.254 382.599 195.168 383.821 192.997 383.821L198.29 394.407H209.283C206.297 397.393 202.769 410.015 198.697 432.274C194.897 452.903 192.997 466.883 192.997 474.212L175.081 465.661L162.052 446.932C160.152 446.932 155.673 442.724 148.616 434.309C141.83 425.895 137.622 421.687 135.993 421.687C135.993 418.159 132.6 412.73 125.814 405.401L120.521 399.7C113.192 399.7 109.528 396.172 109.528 389.114C95.684 382.056 88.7622 372.963 88.7622 361.834C84.1477 361.834 78.9902 356.405 73.2899 345.547C66.7752 333.061 61.4821 325.596 57.4104 323.153C54.9674 313.381 49.4028 300.216 40.7166 283.658C31.759 266.557 32.1661 239.684 41.9381 203.039H47.2313C58.9034 187.838 76.1401 180.645 98.9414 181.459C139.387 182.817 187.568 196.524 243.485 222.583C270.358 235.07 288.545 243.213 298.046 247.013ZM842.019 613.87C839.034 621.742 836.455 630.835 834.283 641.15C834.555 639.793 835.369 634.228 836.726 624.456L831.84 657.029H825.733V673.316H820.847C820.847 675.216 819.354 679.152 816.368 685.124C813.654 691.096 812.161 695.439 811.889 698.153C828.447 711.997 836.726 720.14 836.726 722.583L852.199 753.935L856.27 771.85C853.284 782.436 850.299 788.137 847.313 788.951C844.055 789.765 835.641 788.68 822.068 785.694L800.081 784.065C792.481 779.993 784.473 777.958 776.059 777.958L758.143 763.707V768.186L753.257 761.264L747.964 766.557C747.964 767.914 747.014 772.257 745.114 779.586C745.928 779.043 746.878 778.229 747.964 777.143L742.264 783.251H737.378L732.085 788.544C732.085 795.602 728.556 799.13 721.498 799.13C721.498 803.473 720.955 805.781 719.87 806.052C719.327 805.509 718.648 804.966 717.834 804.423C717.02 804.966 716.612 807.002 716.612 810.531C701.683 810.531 694.218 814.603 694.218 822.746L707.248 829.668L716.612 837.404L728.42 843.104C738.735 843.104 743.892 846.226 743.892 852.469L767.508 864.684C779.18 869.299 796.553 876.628 819.625 886.671L865.635 898.072C875.95 903.501 891.422 906.894 912.052 908.251C932.953 909.608 949.647 906.215 962.134 898.072L975.163 889.521L984.528 854.098C984.528 810.667 971.906 775.922 946.661 749.863C942.047 731.948 927.253 711.182 902.28 687.567C894.408 681.866 889.929 677.252 888.844 673.723C890.472 674.809 893.865 678.473 899.023 684.717C893.865 672.773 885.315 663.544 873.371 657.029C873.371 654.043 870.521 649.7 864.821 644C859.392 638.028 855.185 635.042 852.199 635.042C845.413 622.556 842.019 615.498 842.019 613.87ZM371.336 666.394L375.814 695.303H442.182C442.182 671.687 445.983 636.807 453.583 590.661C461.455 544.244 465.391 509.228 465.391 485.612C470.277 520.357 480.727 546.687 496.743 564.603C497.828 565.96 498.914 566.638 500 566.638C501.086 566.367 501.629 565.146 501.629 562.974C501.629 561.617 501.357 559.174 500.814 555.645C499.186 545.33 490.499 521.986 474.756 485.612C474.756 508.957 484.935 542.751 505.293 586.997C525.923 630.971 536.238 663.815 536.238 685.531H550.489V690.417C553.474 692.046 560.125 692.86 570.44 692.86C578.04 692.86 584.148 692.724 588.762 692.453C611.835 691.096 625.814 690.417 630.7 690.417C630.7 647.257 642.508 583.875 666.124 500.27C689.739 416.394 701.547 352.876 701.547 309.717L625.814 314.603C625.814 344.733 619.978 381.378 608.306 424.537L578.99 533.251C578.99 540.58 576.819 549.13 572.476 558.902C567.318 570.303 561.618 576.003 555.375 576.003C555.375 545.873 545.06 502.306 524.43 445.303C504.072 388.3 493.892 344.733 493.892 314.603H413.681C413.681 353.962 406.623 412.594 392.508 490.498C378.393 568.403 371.336 627.035 371.336 666.394Z" fill="white"/>
<defs>
<linearGradient id="paint0_linear_269_30" x1="12.4999" y1="1012" x2="1024" y2="5.51238e-05" gradientUnits="userSpaceOnUse">
<stop stop-color="#072C43"/>
<stop offset="0.333333" stop-color="#044569"/>
<stop offset="0.671875" stop-color="#5491A8"/>
<stop offset="0.895833" stop-color="#5491A8"/>
</linearGradient>
</defs>
</svg>
