<svg width="35" height="35" viewBox="0 0 35 35" fill="none" xmlns="http://www.w3.org/2000/svg">
<path d="M26.215 3.7948C26.8908 3.41624 27.3321 3.17086 27.6828 3.03097C28.0131 2.89926 28.1578 2.90597 28.2564 2.93156C28.3536 2.95685 28.4799 3.01961 28.6962 3.29152C28.9269 3.58158 29.182 4.00683 29.5724 4.66299L31.1822 7.36825C31.5728 8.0246 31.8248 8.45121 31.9681 8.78961C32.1027 9.10753 32.0925 9.23876 32.0693 9.32316C32.0455 9.40883 31.985 9.52983 31.702 9.74173C31.4021 9.96622 30.9627 10.2142 30.2868 10.5929L24.5526 13.8049C23.913 14.1631 23.4993 14.3931 23.1714 14.5235C22.8643 14.6458 22.739 14.6356 22.6597 14.6146C22.5804 14.5936 22.4668 14.5407 22.2626 14.2832C22.0449 14.0085 21.8029 13.6052 21.4305 12.9793L19.7111 10.0899C19.3286 9.44704 19.0824 9.03019 18.9423 8.69972C18.8106 8.38952 18.8211 8.2635 18.8425 8.18421C18.8641 8.10494 18.9188 7.99063 19.19 7.78695C19.4788 7.56993 19.9032 7.33039 20.5601 6.96238L26.215 3.7948Z" fill="white"/>
<path d="M12.5968 12.3241L17.627 9.50641C17.8119 9.89005 18.0698 10.3234 18.3616 10.8137L20.1323 13.7892C20.3995 14.2382 20.6379 14.6389 20.8677 14.9664L18.6118 16.2301L24.7018 30.5057C24.9486 31.0841 24.6735 31.7504 24.0876 31.9939C23.5015 32.2375 22.8264 31.9661 22.5797 31.3877L17.5004 19.4811L12.4211 31.3877C12.1743 31.9661 11.4992 32.2375 10.9132 31.9939C10.3272 31.7504 10.0521 31.0841 10.2989 30.5057L15.6908 17.8663C15.104 18.1947 14.7147 18.4087 14.4033 18.5326C14.0961 18.6548 13.9708 18.6446 13.8915 18.6236C13.8122 18.6026 13.6985 18.5497 13.4945 18.2923C13.2767 18.0175 13.0348 17.6142 12.6623 16.9884L11.7479 15.4516C11.3653 14.8088 11.1192 14.3919 10.9789 14.0614C10.8473 13.7512 10.8577 13.6252 10.8792 13.5459C10.9008 13.4666 10.9556 13.3523 11.2267 13.1486C11.5156 12.9316 11.9399 12.6921 12.5968 12.3241Z" fill="white"/>
<path d="M9.66416 14.8691L4.71327 17.6423C4.03726 18.021 3.59785 18.269 3.29801 18.4935C3.015 18.7054 2.9544 18.8263 2.93075 18.9121C2.90743 18.9965 2.89725 19.1278 3.03193 19.4457C3.17528 19.784 3.42721 20.2106 3.81779 20.867C4.20825 21.5231 4.46322 21.9483 4.69393 22.2384C4.9102 22.5104 5.03658 22.5731 5.13387 22.5985C5.23235 22.624 5.377 22.6307 5.70733 22.499C6.0581 22.3591 6.49941 22.1137 7.17523 21.7351L12.1001 18.9764C11.87 18.6487 11.6315 18.2478 11.3641 17.7983L10.3984 16.1755C10.1068 15.6855 9.84907 15.2525 9.66416 14.8691Z" fill="white"/>
</svg>
