<svg width="79" height="93" viewBox="0 0 79 93" fill="none" xmlns="http://www.w3.org/2000/svg">
<g clip-path="url(#clip0_25_341)">
<path d="M50.5761 42.4432L50.0089 40.1582C49.9099 39.7597 49.6292 39.4311 49.2512 39.2712C48.8733 39.1113 48.4418 39.1387 48.087 39.3452L46.0522 40.5294C45.9769 40.5733 45.9034 40.6203 45.8289 40.6656L47.357 37.0535C47.4917 36.7349 47.4944 36.3759 47.3644 36.0553L46.1813 33.1369L49.7962 24.5917C51.3616 20.8915 52.0543 16.8163 51.7995 12.807C51.7681 12.3138 51.4609 11.8807 51.0059 11.6882C50.5508 11.4958 50.0261 11.5769 49.6505 11.8978C46.5958 14.5072 44.1537 17.8423 42.5884 21.5425L38.9734 30.0879L36.0552 31.2711C35.7346 31.4011 35.4787 31.6531 35.344 31.9716L33.8159 35.5837C33.7966 35.4987 33.7792 35.4132 33.7582 35.3286L33.191 33.0436C33.092 32.6451 32.8113 32.3165 32.4333 32.1566C32.0554 31.9967 31.6239 32.0241 31.2691 32.2306L29.2343 33.4148C26.6693 34.9078 24.62 37.235 23.4637 39.9683L20.0055 48.143L17.9728 52.9482C17.6922 53.6115 18.0024 54.3769 18.6658 54.6576L23.6289 56.7571L17.8099 60.5912C17.4082 60.8558 17.1847 61.3201 17.2285 61.7992C17.2723 62.2782 17.5762 62.6943 18.0193 62.8817L22.8244 64.9144C23.4879 65.1951 24.2532 64.8847 24.5338 64.2214C24.8144 63.558 24.5042 62.7926 23.8408 62.512L21.2803 61.4288L26.5165 57.9788L34.8409 61.5003L36.0114 67.6606L31.0485 65.5611C30.3852 65.2805 29.6197 65.5908 29.3391 66.2542C29.0585 66.9175 29.3688 67.6829 30.0322 67.9636L37.2399 71.0127C37.6829 71.2001 38.193 71.1285 38.5673 70.8263C38.9417 70.5241 39.1193 70.0405 39.0295 69.5678L37.7285 62.7218L42.6916 64.8213C43.3549 65.102 44.1204 64.7916 44.401 64.1283L46.4337 59.3231L49.8919 51.1484C51.048 48.415 51.2909 45.3236 50.5761 42.4432ZM25.6884 54.796L20.8833 52.7632L21.8997 50.3607L26.7048 52.3934L25.6884 54.796ZM27.7212 49.9908L22.9161 47.9581L25.8661 40.9847C26.8039 38.7679 28.466 36.8802 30.5463 35.6694L31.0781 35.36L31.2263 35.9571C31.8061 38.2932 31.609 40.8006 30.6712 43.0174L27.7212 49.9908ZM35.2986 58.8614L28.0909 55.8123L29.1073 53.4098L36.315 56.4589L35.2986 58.8614ZM40.2813 47.083L37.3314 54.0563L30.1237 51.0072L33.0737 44.0338L37.5359 33.4857L40.4541 32.3025C40.7747 32.1724 41.0306 31.9204 41.1653 31.602L44.9909 22.5588C46.0088 20.1527 47.439 17.9178 49.1914 15.9771C49.0191 18.5862 48.4113 21.1688 47.3934 23.5752L43.5678 32.6182C43.433 32.9368 43.4304 33.2958 43.5603 33.6164L44.7435 36.5348L40.2813 47.083ZM42.5063 61.9106L37.7012 59.8778L38.7176 57.4753L43.5227 59.508L42.5063 61.9106ZM44.5391 57.1054L39.734 55.0727L42.684 48.0993C43.6218 45.8824 45.2839 43.9948 47.3642 42.784L47.896 42.4745L48.0442 43.0717C48.624 45.4078 48.4269 47.9152 47.4891 50.132L44.5391 57.1054Z" fill="white"/>
<path d="M40.8422 35.7139C40.1788 35.4332 39.4134 35.7436 39.1328 36.4069L37.1001 41.2121C36.8195 41.8754 37.1297 42.6408 37.7931 42.9215C38.4565 43.2021 39.2219 42.8917 39.5025 42.2284L41.5353 37.4233C41.8159 36.7599 41.5055 35.9945 40.8422 35.7139Z" fill="white"/>
<path d="M28.2126 65.5014C28.2294 65.418 28.2387 65.3324 28.2391 65.2478C28.2401 65.1618 28.2324 65.0764 28.2165 64.9934C28.2012 64.9089 28.1767 64.8263 28.1448 64.7477C28.1129 64.669 28.073 64.5927 28.0252 64.5215C27.9786 64.4509 27.9247 64.384 27.8654 64.3236C27.8048 64.2626 27.7388 64.2078 27.6684 64.1597C27.5279 64.0633 27.3681 63.9958 27.1999 63.9615C27.1164 63.9447 27.0311 63.9353 26.9451 63.9343C26.8603 63.9338 26.7749 63.9417 26.6918 63.9574C26.6074 63.9727 26.5248 63.9972 26.4462 64.0291C26.3675 64.061 26.2912 64.1009 26.2199 64.1488C26.1481 64.1947 26.0826 64.2491 26.0216 64.3097C25.9611 64.3691 25.905 64.4346 25.8581 64.5053C25.81 64.5756 25.768 64.6513 25.735 64.7294C25.702 64.8073 25.6768 64.8903 25.66 64.9738C25.6419 65.0567 25.6338 65.1426 25.6328 65.2286C25.6323 65.3134 25.6389 65.3982 25.656 65.4819C25.6713 65.5663 25.6958 65.6489 25.7276 65.7275C25.7595 65.8062 25.7994 65.8827 25.8468 65.9549C25.8938 66.0246 25.9478 66.0912 26.0071 66.1516C26.0677 66.2126 26.1331 66.2687 26.204 66.3156C26.2742 66.3638 26.35 66.4058 26.428 66.4388C26.5061 66.4718 26.589 66.4969 26.6724 66.5138C26.7554 66.5318 26.8413 66.5399 26.926 66.5404C27.0119 66.5414 27.0974 66.5336 27.1801 66.519C27.2649 66.5026 27.3476 66.478 27.4262 66.4461C27.5048 66.4142 27.5812 66.3742 27.6524 66.3265C27.7231 66.2799 27.7899 66.226 27.8503 66.1667C27.9113 66.1061 27.9662 66.0401 28.0143 65.9697C28.0625 65.8994 28.1045 65.8236 28.1374 65.7457C28.1706 65.6677 28.1957 65.5847 28.2126 65.5014Z" fill="white"/>
</g>
<g clip-path="url(#clip1_25_341)">
<path fill-rule="evenodd" clip-rule="evenodd" d="M24.8822 72.6494C28.1366 74.6875 29.1314 78.9626 27.2872 81.9076C26.8589 82.5914 26.4954 83.1366 25.6636 83.3612C25.9117 83.0845 26.804 79.9489 24.2023 78.5132C23.0487 80.5978 20.526 85.895 16.8058 85.9423C18.7211 83.4044 20.2914 79.3672 17.5518 76.9183C17.0534 78.1048 15.911 79.8822 14.9148 79.719C15.8625 78.0166 15.2232 76.2001 16.2159 74.6151C18.0135 71.7446 22.448 71.125 24.8822 72.6494ZM12.9983 80.9136C15.6282 81.7087 17.1263 80.231 17.6717 79.0378C18.1468 81.8419 16.7848 83.871 14.917 86.8536C21.2166 88.2206 23.3643 82.1339 24.5338 80.6092C25.1934 82.4296 23.925 84.9984 23.925 84.9984C25.7102 85.182 27.5167 83.8191 28.4268 82.3657C30.6279 78.851 29.4302 74.1346 25.7514 71.8308C22.0727 69.5271 17.3067 70.5087 15.1056 74.0234C13.7975 76.1121 14.7995 78.0808 12.9983 80.9136Z" fill="white"/>
</g>
<defs>
<clipPath id="clip0_25_341">
<rect width="60" height="60" fill="white" transform="translate(23.3765) rotate(22.9301)"/>
</clipPath>
<clipPath id="clip1_25_341">
<rect width="19.345" height="18.4826" fill="white" transform="translate(24.1394 92.6291) rotate(-147.943)"/>
</clipPath>
</defs>
</svg>
