<svg width="36" height="36" viewBox="0 0 36 36" fill="none" xmlns="http://www.w3.org/2000/svg">
<g clip-path="url(#clip0_27_10)">
<path fill-rule="evenodd" clip-rule="evenodd" d="M19.0515 0.376099H16.864C15.6565 0.376099 14.6765 1.3561 14.6765 2.5636V33.1886C14.6765 34.3961 15.6565 35.3761 16.864 35.3761H19.0515C20.259 35.3761 21.239 34.3961 21.239 33.1886V2.5636C21.239 1.3561 20.259 0.376099 19.0515 0.376099ZM29.989 17.8761H27.8015C26.594 17.8761 25.614 18.8561 25.614 20.0636V33.1886C25.614 34.3961 26.594 35.3761 27.8015 35.3761H29.989C31.1965 35.3761 32.1765 34.3961 32.1765 33.1886V20.0636C32.1765 18.8561 31.1965 17.8761 29.989 17.8761ZM8.11401 10.2198H5.92651C4.71901 10.2198 3.73901 11.1998 3.73901 12.4073V33.1886C3.73901 34.3961 4.71901 35.3761 5.92651 35.3761H8.11401C9.32151 35.3761 10.3015 34.3961 10.3015 33.1886V12.4073C10.3015 11.1998 9.32151 10.2198 8.11401 10.2198Z" fill="white"/>
</g>
<defs>
<clipPath id="clip0_27_10">
<rect width="35" height="35" fill="white" transform="translate(0.457764 0.376099)"/>
</clipPath>
</defs>
</svg>
