<svg width="60" height="60" viewBox="0 0 60 60" fill="none" xmlns="http://www.w3.org/2000/svg">
<g clip-path="url(#clip0_27_18)">
<path d="M39.6094 50.5088C38.6719 50.5088 37.9688 49.7475 37.9688 48.81V40.4888C37.9688 39.5513 38.6719 38.8481 39.6094 38.8481H47.9306C48.8681 38.8481 49.6294 39.5513 49.6294 40.4888V48.81C49.6294 49.7475 48.8681 50.5088 47.9306 50.5088H39.6094ZM47.9306 40.4888H39.6094V48.81H47.9306V40.4888ZM56.25 5.625C58.3013 5.625 60 7.32375 60 9.375V56.25C60 58.3013 58.3013 60 56.25 60H3.75C1.69875 60 0 58.3013 0 56.25V9.375C0 7.32375 1.69875 5.625 3.75 5.625H18.75V1.875C18.75 0.819375 19.5713 0 20.625 0C21.6787 0 22.5 0.82125 22.5 1.875V5.625H37.5V1.875C37.5 0.819375 38.3213 0 39.375 0C40.4287 0 41.25 0.82125 41.25 1.875V5.625H56.25ZM3.75 56.25H56.25V9.375H41.25V11.25C41.25 12.3056 40.4287 13.125 39.375 13.125C38.3213 13.125 37.5 12.3038 37.5 11.25V9.375H22.5V11.25C22.5 12.3056 21.6787 13.125 20.625 13.125C19.5713 13.125 18.75 12.3038 18.75 11.25V9.375H3.75V56.25Z" fill="white"/>
</g>
<defs>
<clipPath id="clip0_27_18">
<rect width="60" height="60" fill="white"/>
</clipPath>
</defs>
</svg>
