<svg width="61" height="61" viewBox="0 0 61 61" fill="none" xmlns="http://www.w3.org/2000/svg">
<path d="M50.4383 29.4836C51.1443 28.8508 51.8025 28.2233 52.4093 27.6041C54.294 25.6806 55.7663 23.7528 56.5895 21.9337C57.3995 20.1436 57.7358 18.073 56.62 16.2897C55.5705 14.6122 53.657 13.8864 51.7313 13.6277C49.7538 13.3622 47.356 13.526 44.7388 14.0094L42.518 14.42C39.165 11.8818 34.9873 10.3761 30.4578 10.3761C19.4121 10.3761 10.4578 19.3304 10.4578 30.3761C10.4578 30.5928 10.4612 30.8086 10.468 31.0236L9.14991 32.5066C7.05136 34.5493 5.40684 36.5948 4.46931 38.5138C3.55424 40.3868 3.11834 42.5811 4.29534 44.4623C5.37724 46.1916 7.37604 46.9111 9.37639 47.1486C11.4377 47.3936 13.9443 47.1884 16.6831 46.6459C17.2214 46.5391 17.7724 46.4186 18.335 46.2846C17.1256 45.3616 16.0246 44.3039 15.0543 43.1336C12.9234 43.4981 11.1557 43.5836 9.81879 43.4248C8.23701 43.2368 7.65646 42.7643 7.47439 42.4733C7.31821 42.2238 7.14559 41.5786 7.83866 40.1601C8.44124 38.9268 9.55871 37.4311 11.1921 35.7649C11.9564 38.5031 13.2888 41.0044 15.0543 43.1336C15.3475 43.0836 15.6475 43.0281 15.9543 42.9674C21.0068 41.9661 27.4873 39.5886 34.1533 36.0371C40.8173 32.4868 46.2745 28.5048 49.7233 24.9872C48.959 22.2489 47.6265 19.7477 45.8613 17.6185C48.0725 17.2403 49.886 17.1636 51.232 17.3444C52.7183 17.544 53.2655 17.9981 53.441 18.2787C53.5893 18.5157 53.7545 19.1023 53.173 20.3878C52.6045 21.6442 51.4645 23.2101 49.7308 24.9797L49.7233 24.9872C50.1253 26.4271 50.37 27.9323 50.4383 29.4836Z" fill="white"/>
<path d="M30.4577 50.3761C41.5035 50.3761 50.4577 41.4218 50.4577 30.3761C50.4577 30.0771 50.4513 29.7796 50.4383 29.4836C46.7345 32.8021 41.714 36.2581 35.9165 39.3468C29.6875 42.6656 23.519 45.0498 18.335 46.2846C21.6984 48.8516 25.9 50.3761 30.4577 50.3761Z" fill="white"/>
</svg>
