<svg width="61" height="61" viewBox="0 0 61 61" fill="none" xmlns="http://www.w3.org/2000/svg">
<g clip-path="url(#clip0_27_10)">
<path fill-rule="evenodd" clip-rule="evenodd" d="M32.3328 0.376099H28.5828C26.5128 0.376099 24.8328 2.0561 24.8328 4.1261V56.6261C24.8328 58.6961 26.5128 60.3761 28.5828 60.3761H32.3328C34.4028 60.3761 36.0828 58.6961 36.0828 56.6261V4.1261C36.0828 2.0561 34.4028 0.376099 32.3328 0.376099ZM51.0828 30.3761H47.3328C45.2628 30.3761 43.5828 32.0561 43.5828 34.1261V56.6261C43.5828 58.6961 45.2628 60.3761 47.3328 60.3761H51.0828C53.1528 60.3761 54.8328 58.6961 54.8328 56.6261V34.1261C54.8328 32.0561 53.1528 30.3761 51.0828 30.3761ZM13.5828 17.2511H9.83276C7.76276 17.2511 6.08276 18.9311 6.08276 21.0011V56.6261C6.08276 58.6961 7.76276 60.3761 9.83276 60.3761H13.5828C15.6528 60.3761 17.3328 58.6961 17.3328 56.6261V21.0011C17.3328 18.9311 15.6528 17.2511 13.5828 17.2511Z" fill="white"/>
</g>
<defs>
<clipPath id="clip0_27_10">
<rect width="60" height="60" fill="white" transform="translate(0.457764 0.376099)"/>
</clipPath>
</defs>
</svg>
