<svg width="60" height="60" viewBox="0 0 60 60" fill="none" xmlns="http://www.w3.org/2000/svg">
<path d="M44.94 6.50534C46.0985 5.85637 46.855 5.43572 47.4562 5.19592C48.0225 4.97012 48.2705 4.98162 48.4395 5.0255C48.6062 5.06885 48.8227 5.17645 49.1935 5.64257C49.589 6.13982 50.0262 6.86882 50.6955 7.99367L53.4552 12.6312C54.1247 13.7564 54.5567 14.4877 54.8025 15.0679C55.0332 15.6129 55.0157 15.8378 54.976 15.9825C54.9352 16.1294 54.8315 16.3368 54.3462 16.7001C53.8322 17.0849 53.079 17.51 51.9202 18.1591L42.0902 23.6654C40.9937 24.2796 40.2845 24.6738 39.7225 24.8975C39.196 25.107 38.9812 25.0895 38.8452 25.0535C38.7092 25.0175 38.5145 24.9268 38.1645 24.4855C37.7912 24.0145 37.3765 23.3231 36.738 22.2502L33.7905 17.297C33.1347 16.1949 32.7127 15.4803 32.4725 14.9138C32.2467 14.382 32.2647 14.166 32.3015 14.03C32.3385 13.8941 32.4322 13.6982 32.8972 13.349C33.3922 12.977 34.1197 12.5663 35.246 11.9355L44.94 6.50534Z" fill="white"/>
<path d="M21.5946 21.127L30.2177 16.2968C30.5347 16.9544 30.9767 17.6973 31.477 18.5379L34.5125 23.6387C34.9705 24.4084 35.3792 25.0953 35.7732 25.6568L31.906 27.823L42.346 52.2955C42.769 53.287 42.2975 54.4293 41.293 54.8468C40.2882 55.2643 39.131 54.799 38.708 53.8075L30.0007 33.3963L21.2933 53.8075C20.8703 54.799 19.713 55.2643 18.7084 54.8468C17.7037 54.4293 17.2322 53.287 17.6552 52.2955L26.8985 30.628C25.8925 31.191 25.2252 31.5578 24.6913 31.7703C24.1648 31.9798 23.95 31.9623 23.814 31.9263C23.6781 31.8903 23.4832 31.7995 23.1333 31.3583C22.76 30.8873 22.3453 30.1958 21.7069 29.123L20.1392 26.4885C19.4834 25.3865 19.0614 24.6719 18.821 24.1053C18.5953 23.5736 18.6132 23.3575 18.6501 23.2216C18.687 23.0857 18.7809 22.8898 19.2457 22.5406C19.7409 22.1686 20.4683 21.7579 21.5946 21.127Z" fill="white"/>
<path d="M16.5671 25.49L8.07985 30.244C6.92098 30.8932 6.1677 31.3182 5.6537 31.7032C5.16853 32.0665 5.06465 32.2737 5.0241 32.4207C4.98413 32.5655 4.96668 32.7905 5.19755 33.3355C5.4433 33.9155 5.87518 34.6467 6.54475 35.772C7.2141 36.8967 7.6512 37.6257 8.0467 38.123C8.41745 38.5892 8.6341 38.6967 8.80088 38.7402C8.9697 38.784 9.21768 38.7955 9.78395 38.5697C10.3853 38.33 11.1418 37.9092 12.3004 37.2602L20.7431 32.531C20.3486 31.9692 19.9397 31.282 19.4812 30.5115L17.8258 27.7295C17.3259 26.8895 16.8841 26.1472 16.5671 25.49Z" fill="white"/>
</svg>
