<svg width="91" height="90" viewBox="0 0 91 90" fill="none" xmlns="http://www.w3.org/2000/svg">
<g clip-path="url(#clip0_25_566)">
<path d="M34.7299 52.9127C34.0001 53.6835 34.0978 54.9654 34.9477 55.7702C35.7977 56.5749 37.0831 56.6025 37.8129 55.8318C38.5428 55.0609 38.445 53.7789 37.5951 52.9742C36.7452 52.1694 35.4598 52.1418 34.7299 52.9127ZM36.845 54.9153C36.5734 55.2021 36.0951 55.1919 35.7788 54.8924C35.4626 54.593 35.4262 54.1159 35.6978 53.8291C35.9694 53.5422 36.4477 53.5525 36.764 53.8519C37.0803 54.1514 37.1166 54.6284 36.845 54.9153Z" fill="white"/>
<path d="M61.1324 19.2418C61.3619 18.9994 61.3312 18.5977 61.064 18.3447L52.4829 10.2199C52.2156 9.96681 51.8128 9.95816 51.5834 10.2005L48.1324 13.8454C47.9029 14.0877 47.9335 14.4894 48.2008 14.7425L56.7819 22.8673C57.0492 23.1203 57.4519 23.129 57.6814 22.8866L58.9914 21.503L60.0802 22.5339L56.3189 26.5063C55.1401 26.6403 54.0685 27.1641 53.2805 27.9963C51.4353 29.9452 51.5389 33.0963 53.4243 35.2855L53.0689 35.6609L51.8845 34.5394C51.6172 34.2864 51.2145 34.2777 50.985 34.5201L47.973 37.7012L45.9857 37.1041C45.7587 37.0359 45.5243 37.0925 45.3732 37.2521L41.2684 41.5875L40.479 40.8401L42.1616 39.0631C42.3911 38.8207 42.3604 38.4191 42.0932 38.166L31.6915 28.3175C31.4243 28.0645 31.0215 28.0558 30.7921 28.2982L26.609 32.7162C26.3795 32.9586 26.4101 33.3603 26.6774 33.6133L37.0789 43.4617C37.3461 43.7147 37.7489 43.7234 37.9784 43.481L39.6477 41.7179L40.437 42.4653L36.4407 46.686C36.2112 46.9284 36.2419 47.3301 36.5091 47.5831L39.2887 50.2149L38.8191 50.7108C36.794 49.2033 34.0439 49.2826 32.4259 50.9916C31.3545 52.1231 30.999 53.7405 31.4077 55.2975C29.8307 54.9744 28.2353 55.4175 27.1638 56.5491L25.2122 58.6104L24.4978 57.9339L25.1547 57.2401C25.3842 56.9977 25.3536 56.596 25.0863 56.343L16.5052 48.2181C16.2379 47.9651 15.8352 47.9564 15.6057 48.1988L12.1547 51.8436C11.9252 52.086 11.9558 52.4877 12.2231 52.7407L20.8042 60.8655C21.0715 61.1186 21.4742 61.1273 21.7037 60.8849L22.3608 60.1909L23.0752 60.8673L20.9889 63.0709C20.7594 63.3132 20.79 63.7149 21.0573 63.968L27.5203 70.0873C27.7876 70.3403 28.1903 70.349 28.4198 70.1066L30.5062 67.9031L31.2206 68.5795L30.5635 69.2735C30.334 69.5159 30.3646 69.9176 30.6319 70.1706L39.2132 78.2955C39.4804 78.5486 39.8832 78.5572 40.1127 78.3149L43.5637 74.67C43.7931 74.4277 43.7625 74.026 43.4953 73.7729L34.914 65.648C34.6467 65.395 34.244 65.3863 34.0145 65.6287L33.3574 66.3227L32.643 65.6462L34.5949 63.5847C35.6663 62.4531 36.0217 60.8358 35.6131 59.2788C37.19 59.6016 38.7856 59.1586 39.857 58.0271C41.4753 56.3179 41.4042 53.5666 39.7873 51.6269L40.2567 51.1312L43.011 53.739C43.2782 53.992 43.681 54.0007 43.9105 53.7583L47.9068 49.5376L48.6961 50.2849L47.0267 52.048C46.7972 52.2904 46.8279 52.6921 47.0951 52.9451L57.4966 62.7935C57.7639 63.0465 58.1666 63.0552 58.3961 62.8128L62.5792 58.3948C62.8087 58.1524 62.7781 57.7507 62.5108 57.4977L52.1093 47.6493C51.8421 47.3963 51.4393 47.3876 51.2098 47.63L49.5273 49.407L48.738 48.6597L52.8428 44.3243C52.9939 44.1647 53.0374 43.9275 52.9571 43.7046L52.2524 41.7529L55.2644 38.5717C55.4939 38.3294 55.4632 37.9277 55.196 37.6746L54.0368 36.5771L54.3949 36.1989C56.6816 37.9401 59.8154 37.8645 61.6532 35.9235C62.4407 35.0917 62.9052 33.9936 62.9751 32.8099L66.7372 28.8365L67.8514 29.8914L66.5414 31.275C66.3119 31.5174 66.3425 31.9191 66.6098 32.1721L75.191 40.297C75.4583 40.5501 75.861 40.5587 76.0905 40.3164L79.5415 36.6715C79.771 36.4292 79.7404 36.0275 79.4731 35.7744L70.8919 27.6495C70.6246 27.3965 70.2218 27.3878 69.9924 27.6302L68.6825 29.0137L67.5683 27.9587L68.8601 26.5944C69.0896 26.352 69.059 25.9503 68.7917 25.6973L63.1028 20.3108C62.8355 20.0578 62.4328 20.0491 62.2033 20.2915L60.9115 21.6559L59.8227 20.625L61.1324 19.2418ZM39.5111 39.9235L37.9115 38.409L39.1785 37.0708L40.7781 38.5853L39.5111 39.9235ZM33.4793 35.8771L32.2255 37.2013L30.5601 35.6245L31.8139 34.3002L33.4793 35.8771ZM32.645 33.4225L33.912 32.0843L35.5774 33.6611L34.3104 34.9993L32.645 33.4225ZM34.4472 36.7935L36.1126 38.3703L34.8588 39.6945L33.1934 38.1177L34.4472 36.7935ZM35.2783 35.9157L36.5453 34.5776L38.2106 36.1544L36.9436 37.4926L35.2783 35.9157ZM32.9441 31.1679L31.6771 32.506L30.0775 30.9915L31.3445 29.6534L32.9441 31.1679ZM29.2464 31.8693L30.846 33.3838L29.5922 34.708L27.9926 33.1935L29.2464 31.8693ZM37.4261 42.1256L35.8265 40.6111L37.0804 39.2869L38.6799 40.8014L37.4261 42.1256ZM29.6013 66.9203L24.1062 61.7174L26.3957 59.2993L31.8908 64.5022L29.6013 66.9203ZM27.2266 58.4215L27.9165 57.6928L33.4117 62.8957L32.7218 63.6244L27.2266 58.4215ZM20.4486 53.6165L21.6532 54.757L19.0333 57.5241L17.8287 56.3836L20.4486 53.6165ZM16.8608 55.4672L15.6561 54.3266L18.2761 51.5595L19.4807 52.7001L16.8608 55.4672ZM16.1581 49.5541L17.3083 50.6432L14.6884 53.4102L13.5381 52.3212L16.1581 49.5541ZM20.0012 58.4405L22.6211 55.6735L23.7713 56.7625L21.1514 59.5296L20.0012 58.4405ZM23.1919 59.3131L23.6666 58.8118L24.381 59.4882L23.9063 59.9896L23.1919 59.3131ZM22.3723 63.5484L23.275 62.595L28.7701 67.7979L27.8674 68.7513L22.3723 63.5484ZM35.2697 72.8971L34.0652 71.7566L36.6851 68.9896L37.8896 70.1301L35.2697 72.8971ZM38.8575 71.0465L40.0621 72.187L37.4422 74.9541L36.2376 73.8136L38.8575 71.0465ZM39.5604 76.9597L38.4102 75.8706L41.0301 73.1035L42.1803 74.1926L39.5604 76.9597ZM35.7172 68.0732L33.0973 70.8402L31.9471 69.7512L34.567 66.9841L35.7172 68.0732ZM32.5265 67.2006L32.0518 67.7019L31.3374 67.0254L31.812 66.5241L32.5265 67.2006ZM34.1462 61.9265L28.8443 56.9066C29.7935 56.3587 31.0088 56.3127 32.1187 56.8211L34.0529 58.6525C34.621 59.7328 34.6415 60.9488 34.1462 61.9265ZM38.8892 57.1108C37.8852 58.1711 36.2592 58.4124 34.8274 57.7211L33.0065 55.997C32.238 54.605 32.3901 52.9682 33.3941 51.9079C34.6949 50.5339 36.9859 50.5833 38.5009 52.0177C40.0157 53.4521 40.1901 55.7368 38.8892 57.1108ZM49.6641 51.2012L51.2636 52.7157L50.0098 54.04L48.4103 52.5254L49.6641 51.2012ZM55.696 55.2478L56.963 53.9096L58.6284 55.4864L57.3614 56.8246L55.696 55.2478ZM56.5303 57.7024L55.2765 59.0266L53.6111 57.4498L54.865 56.1255L56.5303 57.7024ZM54.7282 54.3313L53.0628 52.7545L54.3298 51.4163L55.9951 52.9932L54.7282 54.3313ZM53.8971 55.2091L52.6433 56.5333L50.9779 54.9565L52.2317 53.6323L53.8971 55.2091ZM56.2443 59.9431L57.4981 58.6189L59.0977 60.1334L57.8439 61.4576L56.2443 59.9431ZM59.9288 59.2554L58.3292 57.7409L59.5962 56.4027L61.1958 57.9172L59.9288 59.2554ZM51.7622 48.9853L53.3617 50.4998L52.0947 51.838L50.4952 50.3235L51.7622 48.9853ZM37.8244 47.1636L38.9719 45.9516L44.5058 51.1911L43.3582 52.4031L37.8244 47.1636ZM51.6302 43.6663L45.3367 50.3132L39.8029 45.0737L46.0963 38.4268L47.806 38.9404L51.0238 41.9871L51.6302 43.6663ZM53.8807 38.0944L51.4179 40.6956L49.0743 38.4766L51.5371 35.8754L53.8807 38.0944ZM71.2474 34.8989L70.0428 33.7584L72.6627 30.9913L73.8673 32.1318L71.2474 34.8989ZM74.8352 33.0482L76.0397 34.1887L73.4198 36.9558L72.2153 35.8153L74.8352 33.0482ZM75.5381 38.9614L74.3878 37.8723L77.0078 35.1053L78.158 36.1943L75.5381 38.9614ZM71.6949 30.0749L69.0749 32.8419L67.9247 31.7529L70.5446 28.9858L71.6949 30.0749ZM54.7032 34.8788C53.6364 33.8687 53.1381 32.499 53.2404 31.2173L58.439 36.1395C57.1648 36.3116 55.7698 35.8887 54.7032 34.8788ZM60.6851 35.0073C60.4084 35.2995 60.0932 35.536 59.7526 35.7185L53.589 29.8827C53.7528 29.5326 53.9716 29.205 54.2483 28.9128C54.8942 28.2307 55.788 27.8181 56.7652 27.751C56.8161 27.7476 56.8638 27.736 56.9098 27.7209L61.7311 32.2857C61.718 32.3337 61.7086 32.3831 61.7078 32.4345C61.6935 33.4123 61.3302 34.3259 60.6851 35.0073ZM67.4764 26.1171L62.5119 31.3604L57.7909 26.8904L62.7553 21.6472L67.4764 26.1171ZM56.4263 15.6183L57.6308 16.7587L55.0109 19.5258L53.8064 18.3853L56.4263 15.6183ZM52.8385 17.4689L51.6338 16.3283L54.2537 13.5612L55.4584 14.7018L52.8385 17.4689ZM52.1357 11.5558L53.2859 12.6449L50.666 15.412L49.5158 14.3229L52.1357 11.5558ZM55.9788 20.4422L58.5987 17.6752L59.7489 18.7642L57.129 21.5313L55.9788 20.4422Z" fill="white"/>
</g>
<defs>
<clipPath id="clip0_25_566">
<rect width="60.6354" height="66.8614" fill="white" transform="translate(0 44.0304) rotate(-46.5646)"/>
</clipPath>
</defs>
</svg>
