<svg width="30" height="30" viewBox="0 0 30 30" fill="none" xmlns="http://www.w3.org/2000/svg">
<path d="M21.25 17.5C21.9404 17.5 22.5 16.9404 22.5 16.25C22.5 15.5596 21.9404 15 21.25 15C20.5596 15 20 15.5596 20 16.25C20 16.9404 20.5596 17.5 21.25 17.5Z" fill="white"/>
<path d="M21.25 22.5C21.9404 22.5 22.5 21.9404 22.5 21.25C22.5 20.5596 21.9404 20 21.25 20C20.5596 20 20 20.5596 20 21.25C20 21.9404 20.5596 22.5 21.25 22.5Z" fill="white"/>
<path d="M16.25 16.25C16.25 16.9404 15.6904 17.5 15 17.5C14.3096 17.5 13.75 16.9404 13.75 16.25C13.75 15.5596 14.3096 15 15 15C15.6904 15 16.25 15.5596 16.25 16.25Z" fill="white"/>
<path d="M16.25 21.25C16.25 21.9404 15.6904 22.5 15 22.5C14.3096 22.5 13.75 21.9404 13.75 21.25C13.75 20.5596 14.3096 20 15 20C15.6904 20 16.25 20.5596 16.25 21.25Z" fill="white"/>
<path d="M8.75 17.5C9.44036 17.5 10 16.9404 10 16.25C10 15.5596 9.44036 15 8.75 15C8.05965 15 7.5 15.5596 7.5 16.25C7.5 16.9404 8.05965 17.5 8.75 17.5Z" fill="white"/>
<path d="M8.75 22.5C9.44036 22.5 10 21.9404 10 21.25C10 20.5596 9.44036 20 8.75 20C8.05965 20 7.5 20.5596 7.5 21.25C7.5 21.9404 8.05965 22.5 8.75 22.5Z" fill="white"/>
<path fill-rule="evenodd" clip-rule="evenodd" d="M8.75 2.1875C9.26776 2.1875 9.6875 2.60724 9.6875 3.125V4.0784C10.515 4.06249 11.4267 4.06249 12.4293 4.0625H17.5705C18.5732 4.06249 19.485 4.06249 20.3125 4.0784V3.125C20.3125 2.60724 20.7323 2.1875 21.25 2.1875C21.7677 2.1875 22.1875 2.60724 22.1875 3.125V4.15886C22.5124 4.18364 22.8201 4.21478 23.1112 4.25391C24.5767 4.45095 25.763 4.8661 26.6985 5.80155C27.6339 6.73701 28.049 7.92319 28.2461 9.38873C28.4375 10.8127 28.4375 12.6322 28.4375 14.9294V17.5705C28.4375 19.8676 28.4375 21.6873 28.2461 23.1112C28.049 24.5767 27.6339 25.763 26.6985 26.6985C25.763 27.6339 24.5767 28.049 23.1112 28.2461C21.6873 28.4375 19.8678 28.4375 17.5706 28.4375H12.4295C10.1323 28.4375 8.31273 28.4375 6.88873 28.2461C5.4232 28.049 4.23701 27.6339 3.30155 26.6985C2.3661 25.763 1.95095 24.5767 1.75393 23.1112C1.56246 21.6873 1.56248 19.8678 1.5625 17.5705V14.9295C1.56248 12.6322 1.56246 10.8127 1.75393 9.38873C1.95095 7.92319 2.3661 6.73701 3.30155 5.80155C4.23701 4.8661 5.4232 4.45095 6.88873 4.25391C7.17988 4.21478 7.48758 4.18364 7.8125 4.15886V3.125C7.8125 2.60724 8.23224 2.1875 8.75 2.1875ZM7.13856 6.1122C5.88095 6.28127 5.15639 6.59836 4.62738 7.12738C4.09836 7.65639 3.78128 8.38095 3.6122 9.63856C3.58356 9.85154 3.55963 10.0758 3.5396 10.3125H26.4604C26.4404 10.0758 26.4164 9.85155 26.3878 9.63856C26.2188 8.38095 25.9016 7.65639 25.3726 7.12738C24.8436 6.59836 24.119 6.28127 22.8615 6.1122C21.5769 5.93949 19.8835 5.9375 17.5 5.9375H12.5C10.1165 5.9375 8.42314 5.93949 7.13856 6.1122ZM3.4375 15C3.4375 13.9325 3.4379 13.0034 3.45386 12.1875H26.5461C26.5621 13.0034 26.5625 13.9325 26.5625 15V17.5C26.5625 19.8835 26.5605 21.5769 26.3878 22.8615C26.2188 24.119 25.9016 24.8436 25.3726 25.3726C24.8436 25.9016 24.119 26.2188 22.8615 26.3878C21.5769 26.5605 19.8835 26.5625 17.5 26.5625H12.5C10.1165 26.5625 8.42314 26.5605 7.13856 26.3878C5.88095 26.2188 5.15639 25.9016 4.62738 25.3726C4.09836 24.8436 3.78128 24.119 3.6122 22.8615C3.43949 21.5769 3.4375 19.8835 3.4375 17.5V15Z" fill="white"/>
</svg>
