<svg width="36" height="36" viewBox="0 0 36 36" fill="none" xmlns="http://www.w3.org/2000/svg">
<path d="M29.6131 17.3555C30.0249 16.9863 30.4089 16.6203 30.7628 16.2591C31.8622 15.137 32.7211 14.0125 33.2013 12.9514C33.6738 11.9071 33.8699 10.6993 33.2191 9.65904C32.6069 8.68046 31.4907 8.25707 30.3673 8.10621C29.2138 7.9513 27.8151 8.04684 26.2883 8.32882L24.9929 8.56837C23.037 7.08775 20.6 6.20941 17.9578 6.20941C11.5144 6.20941 6.2911 11.4328 6.2911 17.8761C6.2911 18.0025 6.29311 18.1284 6.29709 18.2538L5.52818 19.1189C4.30403 20.3105 3.34472 21.5037 2.79783 22.6231C2.26404 23.7157 2.00976 24.9957 2.69635 26.0931C3.32746 27.1018 4.49342 27.5215 5.66029 27.66C6.86272 27.803 8.32493 27.6832 9.92256 27.3668C10.2365 27.3045 10.558 27.2342 10.8862 27.156C10.1807 26.6176 9.5384 26.0006 8.9724 25.318C7.72936 25.5306 6.69823 25.5805 5.91836 25.4878C4.99566 25.3782 4.657 25.1026 4.55079 24.9328C4.45969 24.7873 4.35899 24.4109 4.76329 23.5834C5.11479 22.864 5.76665 21.9915 6.71948 21.0195C7.16532 22.6168 7.94256 24.0759 8.9724 25.318C9.14342 25.2888 9.31845 25.2564 9.49739 25.221C12.4447 24.6369 16.225 23.25 20.1135 21.1783C24.0008 19.1073 27.1842 16.7845 29.196 14.7325C28.7502 13.1352 27.9729 11.6762 26.9431 10.4341C28.233 10.2135 29.2909 10.1688 30.0761 10.2742C30.9431 10.3907 31.2623 10.6556 31.3647 10.8193C31.4511 10.9575 31.5475 11.2997 31.2083 12.0496C30.8767 12.7825 30.2117 13.6959 29.2003 14.7282L29.196 14.7325C29.4305 15.5725 29.5732 16.4506 29.6131 17.3555Z" fill="white"/>
<path d="M17.9578 29.5428C24.4011 29.5428 29.6244 24.3194 29.6244 17.8761C29.6244 17.7017 29.6206 17.5281 29.6131 17.3555C27.4525 19.2913 24.5239 21.3073 21.142 23.109C17.5084 25.045 13.9102 26.4358 10.8862 27.1561C12.8482 28.6535 15.2991 29.5428 17.9578 29.5428Z" fill="white"/>
</svg>
