<svg width="20" height="20" viewBox="0 0 20 20" fill="none" xmlns="http://www.w3.org/2000/svg">
<g clip-path="url(#clip0_25_556)">
<path d="M17.2185 1.5168C17.2188 1.25727 17.2916 1.00298 17.4285 0.78252C17.5655 0.562062 17.7612 0.384181 17.9937 0.26888C18.2262 0.153578 18.4863 0.105429 18.7447 0.129845C19.0031 0.154261 19.2495 0.250275 19.4563 0.40709C19.6631 0.563905 19.8221 0.775303 19.9153 1.01751C20.0085 1.25972 20.0324 1.52314 19.9841 1.77814C19.9358 2.03314 19.8173 2.26962 19.642 2.46097C19.4667 2.65233 19.2414 2.79098 18.9916 2.86134V6.45378H18.2479V2.86134C17.954 2.77867 17.6948 2.60296 17.5092 2.36054C17.3237 2.11813 17.2216 1.82209 17.2185 1.5168Z" fill="#E57CFF"/>
<path d="M12.9159 1.16386V4.81092C15.3067 5.84874 16.9873 8.05042 16.9873 10.6303C16.9873 14.1723 13.7941 16.1975 9.89491 16.1975C5.99575 16.1975 2.78566 14.1513 2.78566 10.6303C2.78566 8.07143 4.46634 5.86975 6.83608 4.83193V1.16386C3.57138 2.42437 1.79407 5.78571 1.79407 9.69748C1.79407 14.7395 5.41592 17.5966 9.89491 17.5966C14.3739 17.5966 18 14.7353 18 9.69748C17.9789 5.77311 16.1806 2.42857 12.9159 1.16386Z" fill="#E57CFF"/>
<path d="M12.4076 4.60925V0.987399C11.5896 0.741451 10.7408 0.612719 9.88661 0.605046C9.03148 0.600292 8.18087 0.729302 7.3656 0.987399V4.60925C9.00397 4.03233 10.7903 4.03233 12.4286 4.60925H12.4076Z" fill="#E57CFF"/>
<path d="M8.33195 5.51681C7.54285 5.72359 6.80386 6.08823 6.15968 6.5887C5.5155 7.08917 4.97949 7.71508 4.58405 8.42857C4.56705 8.46147 4.55751 8.4977 4.55609 8.53469C4.55468 8.57169 4.56143 8.60855 4.57587 8.64264C4.59031 8.67674 4.61208 8.70723 4.63964 8.73196C4.6672 8.75669 4.69986 8.77504 4.73531 8.78572L5.84876 9.13866C5.90664 9.1535 5.96777 9.14924 6.02304 9.12653C6.07831 9.10382 6.12476 9.06386 6.15548 9.01261C6.42326 8.50582 6.79289 8.05985 7.24118 7.70266C7.68946 7.34548 8.20673 7.0848 8.76052 6.93698C8.82103 6.9153 8.87213 6.87328 8.90508 6.8181C8.93804 6.76292 8.9508 6.69801 8.9412 6.63446L8.65968 5.69748C8.65223 5.6628 8.63742 5.63011 8.61626 5.60164C8.59509 5.57317 8.56806 5.54958 8.53699 5.53245C8.50593 5.51532 8.47154 5.50507 8.43617 5.50237C8.4008 5.49967 8.36526 5.50459 8.33195 5.51681Z" fill="#E57CFF"/>
<path d="M0 10.7605V11.2647C0 11.599 0.132803 11.9196 0.369193 12.156C0.605583 12.3924 0.926198 12.5252 1.2605 12.5252H1.68067C1.49834 11.9489 1.37998 11.3543 1.32773 10.7521L0 10.7605Z" fill="#E57CFF"/>
<path d="M1.26893 9.69748C1.26424 8.77712 1.36575 7.85929 1.57145 6.96219H1.26893C0.934621 6.96219 0.614006 7.09499 0.377616 7.33138C0.141225 7.56777 0.00842285 7.88839 0.00842285 8.22269V10.2521H1.26893V9.69748Z" fill="#E57CFF"/>
<path d="M18.0798 12.5336H18.5C18.8343 12.5336 19.1549 12.4008 19.3913 12.1644C19.6277 11.928 19.7605 11.6074 19.7605 11.2731V10.7689H18.4328C18.3799 11.3683 18.2616 11.96 18.0798 12.5336Z" fill="#E57CFF"/>
<path d="M18.4832 6.96219H18.1807C18.3864 7.85929 18.4879 8.77712 18.4832 9.69749C18.4868 9.88271 18.4784 10.068 18.458 10.2521H19.7185V8.2269C19.7254 8.06146 19.6984 7.89636 19.6391 7.74174C19.5799 7.58712 19.4896 7.44626 19.3739 7.32781C19.2582 7.20935 19.1195 7.11581 18.9663 7.05294C18.8132 6.99006 18.6487 6.95918 18.4832 6.96219Z" fill="#E57CFF"/>
<path d="M15.9033 16.2773C14.2053 17.6661 12.0669 18.4022 9.87392 18.3529C7.68234 18.4012 5.54559 17.6651 3.84871 16.2773L3.49577 16.6345C3.45055 16.6756 3.42275 16.7324 3.41806 16.7933C3.41338 16.8542 3.43216 16.9147 3.47056 16.9622C4.96636 18.8613 7.25207 19.874 9.87392 19.874C12.4958 19.874 14.7857 18.8613 16.2815 16.9622C16.3209 16.9151 16.3403 16.8544 16.3356 16.7932C16.3309 16.732 16.3024 16.675 16.2563 16.6345L15.9033 16.2773Z" fill="#E57CFF"/>
</g>
<defs>
<clipPath id="clip0_25_556">
<rect width="20" height="20" fill="white"/>
</clipPath>
</defs>
</svg>
