<svg width="35" height="35" viewBox="0 0 35 35" fill="none" xmlns="http://www.w3.org/2000/svg">
<g clip-path="url(#clip0_27_18)">
<path d="M23.1055 29.4634C22.5586 29.4634 22.1484 29.0194 22.1484 28.4725V23.6184C22.1484 23.0716 22.5586 22.6614 23.1055 22.6614H27.9595C28.5064 22.6614 28.9505 23.0716 28.9505 23.6184V28.4725C28.9505 29.0194 28.5064 29.4634 27.9595 29.4634H23.1055ZM27.9595 23.6184H23.1055V28.4725H27.9595V23.6184ZM32.8125 3.28125C34.0091 3.28125 35 4.27219 35 5.46875V32.8125C35 34.0091 34.0091 35 32.8125 35H2.1875C0.990938 35 0 34.0091 0 32.8125V5.46875C0 4.27219 0.990938 3.28125 2.1875 3.28125H10.9375V1.09375C10.9375 0.477969 11.4166 0 12.0312 0C12.6459 0 13.125 0.479063 13.125 1.09375V3.28125H21.875V1.09375C21.875 0.477969 22.3541 0 22.9688 0C23.5834 0 24.0625 0.479063 24.0625 1.09375V3.28125H32.8125ZM2.1875 32.8125H32.8125V5.46875H24.0625V6.5625C24.0625 7.17828 23.5834 7.65625 22.9688 7.65625C22.3541 7.65625 21.875 7.17719 21.875 6.5625V5.46875H13.125V6.5625C13.125 7.17828 12.6459 7.65625 12.0312 7.65625C11.4166 7.65625 10.9375 7.17719 10.9375 6.5625V5.46875H2.1875V32.8125Z" fill="white"/>
</g>
<defs>
<clipPath id="clip0_27_18">
<rect width="35" height="35" fill="white"/>
</clipPath>
</defs>
</svg>
